<svg xmlns="http://www.w3.org/2000/svg" width="210mm" height="80mm" viewBox="0 0 21000 8000" shape-rendering="geometricPrecision" text-rendering="geometricPrecision" image-rendering="optimizeQuality" fill-rule="evenodd" clip-rule="evenodd">
    <defs>
        <style>
            .str0{stroke:#2b2a29;stroke-width:20}.fil6{fill:#2b2a29}.fil0,.fil1{fill:#fefefe;fill-rule:nonzero}.fil0{fill:#2b2a29}.fil2,.fil3,.fil4,.fil5{fill:#d3282d;fill-rule:nonzero}.fil4,.fil5{fill:#e3cea9}.fil4{fill:#ffae31}
        </style>
    </defs>
    <g id="Слой_x0020_1">
        <g id="_334567248">
            <path class="fil0" d="M591 440h19906v7183H591V440zm5767 1212c-298 114-572 291-800 515-331-1-662-1-993-1-215 467-428 933-643 1399-237-466-475-932-712-1399h-683v3190c227 1 455 0 682 0 1-469 1-938 0-1408 239 411 476 822 713 1232 238-410 475-821 713-1231 1 469 0 938 0 1407 266 1 531 0 797 1 109 127 233 242 368 343 278 209 605 352 947 419 0 167 0 334-1 501 88 1 176 0 264 1 3844-1 7688 0 11531-1v-820c0-206 1-412-1-618V2166c-261 1-523 0-784 1-64 105-130 210-194 315-342 552-683 1104-1025 1656-61-86-121-172-181-257-96-137-193-273-288-410 252-435 502-870 754-1304-263-1-525 0-788-1-19 31-36 63-55 94-159 276-319 552-478 829-80 138-159 276-240 413V2167c-227-1-455 0-682-1-20 33-39 66-58 99-169 293-338 586-507 878-163 282-325 565-489 847V2166c-228 0-455 1-683 0-1 167 0 334 0 501v2690c228-1 455 0 683-1 274-475 548-950 823-1425 76-132 152-265 229-397 3 42 1 84 1 126v1696h683V3504c296 421 591 843 886 1265-122 195-242 392-364 587 537 1 1074 0 1612 1-84-121-170-239-253-360h715c0 120 1 240 0 360 206-1 411 0 616-1-236 382-475 763-711 1145H7183c-74-116-148-233-221-350 199 20 400 14 597-17 281-45 553-142 800-284 225-130 428-297 599-494h1144c223 0 446 1 669 0 32-48 61-99 93-147 43-71 87-141 132-211 10-2 20-1 30-1h1018v359h683V2166c-262 1-523 0-784 1-312 506-626 1010-938 1516-67-79-145-150-231-208-83-57-173-102-265-141 188-390 376-779 565-1168-566 1-1131 0-1696 1-81 122-164 243-246 365-169-253-387-473-640-642-299-201-646-329-1003-375-381-49-773-2-1131 137zm9011 3973c-47 11-96 12-142 26-35 10-69 28-94 54-18 20-35 42-47 66-19 40-28 84-31 128-2 41-2 83 8 123 10 39 26 78 55 106 30 32 74 48 118 48 50 1 102-16 136-54 27-28 41-66 46-103 6-43 3-87-15-127-12-29-33-55-61-71-41-23-94-29-138-11-26 9-47 28-64 50 9-46 32-91 74-115 48-27 105-22 157-37 6-2 9-9 9-15 0-21 3-41 3-62 2-9-9-8-14-6zm-5404 207c-49 36-74 98-72 158-1 60 26 123 78 156 46 30 104 34 157 27 22-3 44-8 63-18l-12-69c-2-5-8-6-12-3-27 10-57 14-86 10-32-5-62-26-75-56-16-39-14-87 9-122 19-29 53-44 87-43 25-1 49 7 72 14 6-24 12-47 17-70 1-10-11-11-17-14-69-20-150-14-209 30zm570-15c-5 3-14 5-15 12 5 21 12 40 18 61 14-2 26-11 39-14 31-10 66-15 98-5 21 7 34 29 33 51-58-1-121 8-169 43-54 41-63 131-12 178 13 14 31 23 50 28 49 13 104-2 140-37 2 10 4 21 6 31 18 4 37 2 56 2 12 0 24 2 35-3-10-70-5-141-6-211 2-38-6-78-28-109-20-29-54-45-88-50-53-7-108-1-157 23zm1421-23c-59 9-114 47-137 103-30 72-23 165 32 225 36 36 88 56 140 54 69 1 140-40 168-105 20-46 23-100 11-148-13-51-49-97-99-117-36-15-77-17-115-12zm2504 42c-56 50-71 132-57 203 9 44 36 84 74 108 33 20 72 30 111 28 46 2 92-6 134-24-5-24-8-48-17-71-36 13-74 19-112 17-26-1-53-9-73-27-16-15-23-37-25-58 75 1 150 0 225 1 7-1 18 2 19-8 7-54-1-112-34-156-27-38-75-58-121-57-45-2-92 13-124 44zm1334 2c-55 50-69 131-55 201 9 44 36 84 74 108 33 20 72 30 111 28 46 2 91-6 133-24-5-23-7-48-17-71-33 12-68 18-103 17-29 0-59-7-81-27-16-15-23-37-26-58 76 1 151 0 226 1 6-1 18 2 19-8 7-53-1-112-34-156-27-38-75-58-121-57-46-2-94 13-126 46zm-4606-36c-3 69 1 139-4 208-2 23-6 48-23 65-11 12-26 18-42 21-1 20 5 39 6 59 2 7 0 17 8 20 35 3 73-8 98-34 24-20 36-51 42-81 12-60 7-120 8-180h87c1 95-1 191 1 286 27 3 55 0 82 1 6 0 18 2 17-8 1-117 0-234 0-351 1-7-8-9-13-8h-239c-10 1-19-1-28 2zm1325 15v338c-1 6 2 13 9 12 30-1 60 2 90-1 3-50 1-101 1-151 44 0 88-1 131 0 0 49 0 98 1 148 4 7 14 3 21 4 26-1 52 2 77-1 3-82 1-164 1-247-1-39 2-79-1-118-26-2-51 0-77-1-7 1-17-3-21 4-1 44-1 88 0 131h-132c0-42 1-85 0-127 1-6-2-8-7-8h-88c-7 3-5 11-5 17zm1143-17c-4 24-3 49-6 74-7 95-14 190-21 284-1 8 9 10 15 9 26-1 51 1 77-1 3-87 11-175 11-262 10 35 18 70 29 105 17 48 33 97 49 145 0 6 5 9 11 9 21 0 42-1 64 0 7-15 12-31 18-47 25-72 54-144 74-218-3 31 2 63 2 95 4 57 4 116 9 173 13 3 26 0 39 1 18-1 35 2 53-1 3-9 0-19 0-28-8-113-13-226-23-338-32-2-64-1-95-1-9 1-20-3-28 3-27 78-53 156-78 235-24-72-47-145-71-217-3-6-3-15-9-20-40-2-80-1-120 0zm2776 1c-3 71 2 142-4 213-2 25-8 52-29 67-9 9-22 11-34 16-5 17 3 35 4 53 2 8-1 21 9 25 35 3 73-8 97-34 26-21 38-54 44-86 10-58 5-117 7-175h87c0 93-1 186 0 279-1 6 2 9 7 8 29 0 58 1 88 0 7-2 4-11 5-16v-339c1-5-2-13-9-12h-157c-38 1-77-2-115 1zm638 7v351c-1 8 7 11 13 9 34 0 69 1 103 0 44-87 91-173 132-263-7 82-4 164-5 246 1 5-1 13 5 17 26 1 52 0 78 0 6 2 13-2 12-9v-239c-1-40 2-80-1-119-38-3-77 0-115-1-30 54-57 110-87 165-16 30-28 62-43 93 4-50 3-100 3-151-1-35 2-71-1-106-26-2-52 0-77-1-7 1-19-2-17 8z"/>
            <path class="fil0" d="M6531 1717c386-122 805-134 1197-36 328 81 637 238 895 457 243 207 442 466 577 755 145 309 217 651 207 992-7 296-75 589-196 859-36 71-70 142-111 210-122 211-282 398-466 556-202 172-433 308-682 399-344 126-720 165-1082 110-326-48-642-170-915-355-266-180-491-418-656-692-182-300-291-644-314-994-25-370 45-746 201-1082 74-159 167-309 276-446 30-38 64-74 94-112 50-50 98-102 152-149 236-214 519-376 823-472zm562-14c-282 13-561 84-816 206-283 135-536 333-734 577-212 258-360 568-429 894-83 376-60 774 66 1138 107 313 289 600 524 832 238 234 532 410 850 510 376 118 785 131 1166 32 268-68 521-190 743-354 193-144 362-319 496-519 145-214 250-455 308-707 72-308 75-632 6-940-67-305-203-595-394-842-196-255-450-465-737-607-324-161-688-237-1049-220z"/>
            <path class="fil0" d="M9311 2849h664c-118 241-237 482-355 723 202 117 404 235 606 352 34 21 71 38 102 63 51 39 94 89 119 149 27 65 31 139 13 208-24 97-86 182-167 241-55 39-119 67-186 80-53 11-107 9-161 9-193 0-385 0-577-1 109-281 163-583 158-885-5-323-80-645-216-939zM11421 4314c208-333 415-667 623-1000v1000c-208 0-415 1-623 0zM17764 3464c31-50 61-100 93-149 1 333 0 666 0 999-207 1-415 0-622 0 175-284 353-567 529-850zM14512 5897c21-36 75-45 107-20 19 16 25 40 27 63h-151c4-15 8-30 17-43zM15873 5873c25-15 59-14 82 4 18 15 25 40 27 63h-151c5-26 17-54 42-67zM11972 5869c22-5 47-2 64 14 25 21 35 55 37 86 3 39-5 82-33 111-27 26-73 27-100 1-34-33-40-85-32-130 5-36 26-74 64-82zM15220 5875c27-6 58 3 74 27 24 35 27 81 20 121-5 27-16 56-41 69-27 15-64 9-85-14-24-31-33-71-31-109 2-39 21-84 63-94zM10625 6005c26-13 56-14 85-15 0 20 2 41-1 61-10 39-58 62-94 44-34-19-26-77 10-90z"/>
            <path class="fil1" d="M6358 1652c358-139 750-186 1131-137 357 46 704 174 1003 375 253 169 471 389 640 642 82-122 165-243 246-365 565-1 1130 0 1696-1-189 389-377 778-565 1168 92 39 182 84 265 141 86 58 164 129 231 208 312-506 626-1010 938-1516 261-1 522 0 784-1v3190h-683v-359h-1018c-10 0-20-1-30 1-45 70-89 140-132 211-32 48-61 99-93 147-223 1-446 0-669 0H8958c-171 197-374 364-599 494-247 142-519 239-800 284-197 31-398 37-597 17 73 117 147 234 221 350h10579c236-382 475-763 711-1145-205 1-410 0-616 1 1-120 0-240 0-360h-715c83 121 169 239 253 360-538-1-1075 0-1612-1 122-195 242-392 364-587-295-422-590-844-886-1265v1852h-683V3660c0-42 2-84-1-126-77 132-153 265-229 397-275 475-549 950-823 1425-228 1-455 0-683 1V2667c0-167-1-334 0-501 228 1 455 0 683 0v1824c164-282 326-565 489-847 169-292 338-585 507-878 19-33 38-66 58-99 227 1 455 0 682 1v1335c81-137 160-275 240-413 159-277 319-553 478-829 19-31 36-63 55-94 263 1 525 0 788 1-252 434-502 869-754 1304 95 137 192 273 288 410 60 85 120 171 181 257 342-552 683-1104 1025-1656 64-105 130-210 194-315 261-1 523 0 784-1v3016c2 206 1 412 1 618v820c-3843 1-7687 0-11531 1-88-1-176 0-264-1 1-167 1-334 1-501-342-67-669-210-947-419-135-101-259-216-368-343-266-1-531 0-797-1 0-469 1-938 0-1407-238 410-475 821-713 1231-237-410-474-821-713-1232 1 470 1 939 0 1408-227 0-455 1-682 0V2166h683c237 467 475 933 712 1399 215-466 428-932 643-1399 331 0 662 0 993 1 228-224 502-401 800-515zm173 65c-304 96-587 258-823 472-54 47-102 99-152 149-30 38-64 74-94 112-109 137-202 287-276 446-156 336-226 712-201 1082 23 350 132 694 314 994 165 274 390 512 656 692 273 185 589 307 915 355 362 55 738 16 1082-110 249-91 480-227 682-399 184-158 344-345 466-556 41-68 75-139 111-210 121-270 189-563 196-859 10-341-62-683-207-992-135-289-334-548-577-755-258-219-567-376-895-457-392-98-811-86-1197 36zm2780 1132c136 294 211 616 216 939 5 302-49 604-158 885 192 1 384 1 577 1 54 0 108 2 161-9 67-13 131-41 186-80 81-59 143-144 167-241 18-69 14-143-13-208-25-60-68-110-119-149-31-25-68-42-102-63-202-117-404-235-606-352 118-241 237-482 355-723h-664zm2110 1465c208 1 415 0 623 0V3314c-208 333-415 667-623 1000zm6343-850c-176 283-354 566-529 850 207 0 415 1 622 0 0-333 1-666 0-999-32 49-62 99-93 149zm644 2222c-168 272-338 543-506 815h520v-835c-5 7-10 13-14 20z"/>
            <path class="fil1" d="M7093 1703c361-17 725 59 1049 220 287 142 541 352 737 607 191 247 327 537 394 842 69 308 66 632-6 940-58 252-163 493-308 707-134 200-303 375-496 519-222 164-475 286-743 354-381 99-790 86-1166-32-318-100-612-276-850-510-235-232-417-519-524-832-126-364-149-762-66-1138 69-326 217-636 429-894 198-244 451-442 734-577 255-122 534-193 816-206zm-142 532c18 5 36 8 55 12 195 40 391 80 587 121 0-186 1-371 1-556-215 140-429 282-643 423zm690-388c-1 662-2 1324-2 1986 0 46-8 92-22 136 286-286 572-571 858-857-278-422-556-844-834-1265zm-1531 265c15 18 33 33 49 50 452 453 904 907 1356 1360 31 31 56 67 76 106 1-404 1-808 2-1212-494-101-989-203-1483-304zm-60 9c-52 251-104 502-155 753 183-119 365-241 548-360-131-131-262-263-393-393zm2099 409c120 183 240 366 361 548 131-132 263-262 393-393-252-51-503-104-754-155zm-1686 26c-283 188-566 374-850 561-133 89-268 176-401 265 663 2 1325 1 1988 3 45 0 89 8 132 21-283-285-567-569-851-854-5-7-12 2-18 4zm1038 1595c-31 31-67 55-105 76 404 1 807 0 1211 2 34-162 67-324 100-486 68-333 137-666 205-999-471 469-941 938-1411 1407zm-2325-721c141 214 282 427 423 641 8-16 8-35 13-52 40-196 80-392 120-589h-556zm605 0c-102 495-203 990-305 1485 58-57 115-115 172-172 227-226 454-453 681-679 50-48 97-99 148-145 19-23 41-42 61-63 24-23 46-48 71-69 14-18 31-32 47-49 28-27 55-57 85-83 20-23 42-43 63-65 30-29 59-59 89-88 30-28 64-51 101-70-405-1-809-1-1213-2zm3007 157c-45 213-88 427-132 640 13 2 27 1 41 1 171 0 343 1 515 1-102-154-203-308-305-462-40-60-78-121-119-180zm-2062 148c-271 271-543 541-813 812 233 353 465 706 698 1059 46 68 89 137 136 204 1-197 0-394 1-591 1-467 1-935 2-1402 0-42 8-85 21-125-16 13-30 29-45 43zm71 295c-1 404-1 808-2 1213 495 101 990 203 1485 304-468-470-937-939-1406-1409-31-31-57-69-77-108zm258 222c285 287 571 572 856 859 318-209 635-419 953-628 103-69 209-137 312-207-663-1-1326-1-1988-2-45 0-90-8-133-22zm-1570 721c56 13 113 23 169 35 195 40 390 81 586 121-121-183-241-366-362-548-131 131-262 261-393 392zm2461 172c128 129 256 257 384 386 3 3 10 8 10 1 50-249 103-498 153-748-182 121-365 240-547 361zm-1151 146v556c190-125 380-251 570-376 24-17 49-30 71-48-213-44-427-88-641-132zM15369 5625c5-2 16-3 14 6 0 21-3 41-3 62 0 6-3 13-9 15-52 15-109 10-157 37-42 24-65 69-74 115 17-22 38-41 64-50 44-18 97-12 138 11 28 16 49 42 61 71 18 40 21 84 15 127-5 37-19 75-46 103-34 38-86 55-136 54-44 0-88-16-118-48-29-28-45-67-55-106-10-40-10-82-8-123 3-44 12-88 31-128 12-24 29-46 47-66 25-26 59-44 94-54 46-14 95-15 142-26zm-149 250c-42 10-61 55-63 94-2 38 7 78 31 109 21 23 58 29 85 14 25-13 36-42 41-69 7-40 4-86-20-121-16-24-47-33-74-27zM9965 5832c59-44 140-50 209-30 6 3 18 4 17 14-5 23-11 46-17 70-23-7-47-15-72-14-34-1-68 14-87 43-23 35-25 83-9 122 13 30 43 51 75 56 29 4 59 0 86-10 4-3 10-2 12 3l12 69c-19 10-41 15-63 18-53 7-111 3-157-27-52-33-79-96-78-156-2-60 23-122 72-158zM10535 5817c49-24 104-30 157-23 34 5 68 21 88 50 22 31 30 71 28 109 1 70-4 141 6 211-11 5-23 3-35 3-19 0-38 2-56-2-2-10-4-21-6-31-36 35-91 50-140 37-19-5-37-14-50-28-51-47-42-137 12-178 48-35 111-44 169-43 1-22-12-44-33-51-32-10-67-5-98 5-13 3-25 12-39 14-6-21-13-40-18-61 1-7 10-9 15-12zm90 188c-36 13-44 71-10 90 36 18 84-5 94-44 3-20 1-41 1-61-29 1-59 2-85 15zM11956 5794c38-5 79-3 115 12 50 20 86 66 99 117 12 48 9 102-11 148-28 65-99 106-168 105-52 2-104-18-140-54-55-60-62-153-32-225 23-56 78-94 137-103zm16 75c-38 8-59 46-64 82-8 45-2 97 32 130 27 26 73 25 100-1 28-29 36-72 33-111-2-31-12-65-37-86-17-16-42-19-64-14zM14460 5836c32-31 79-46 124-44 46-1 94 19 121 57 33 44 41 102 34 156-1 10-12 7-19 8-75-1-150 0-225-1 2 21 9 43 25 58 20 18 47 26 73 27 38 2 76-4 112-17 9 23 12 47 17 71-42 18-88 26-134 24-39 2-78-8-111-28-38-24-65-64-74-108-14-71 1-153 57-203zm52 61c-9 13-13 28-17 43h151c-2-23-8-47-27-63-32-25-86-16-107 20zM15794 5838c32-33 80-48 126-46 46-1 94 19 121 57 33 44 41 103 34 156-1 10-13 7-19 8-75-1-150 0-226-1 3 21 10 43 26 58 22 20 52 27 81 27 35 1 70-5 103-17 10 23 12 48 17 71-42 18-87 26-133 24-39 2-78-8-111-28-38-24-65-64-74-108-14-70 0-151 55-201zm79 35c-25 13-37 41-42 67h151c-2-23-9-48-27-63-23-18-57-19-82-4zM11188 5802c9-3 18-1 28-2h239c5-1 14 1 13 8 0 117 1 234 0 351 1 10-11 8-17 8-27-1-55 2-82-1-2-95 0-191-1-286h-87c-1 60 4 120-8 180-6 30-18 61-42 81-25 26-63 37-98 34-8-3-6-13-8-20-1-20-7-39-6-59 16-3 31-9 42-21 17-17 21-42 23-65 5-69 1-139 4-208zM12513 5817c0-6-2-14 5-17h88c5 0 8 2 7 8 1 42 0 85 0 127h132c-1-43-1-87 0-131 4-7 14-3 21-4 26 1 51-1 77 1 3 39 0 79 1 118 0 83 2 165-1 247-25 3-51 0-77 1-7-1-17 3-21-4-1-50-1-99-1-148-43-1-87 0-131 0 0 50 2 101-1 151-30 3-60 0-90 1-7 1-10-6-9-12v-338zM13656 5800c40-1 80-2 120 0 6 5 6 14 9 20 24 72 47 145 71 217 25-79 51-157 78-235 8-6 19-2 28-3 31 0 63-1 95 1 10 112 15 225 23 338 0 9 3 19 0 28-18 3-35 0-53 1-13-1-26 2-39-1-5-57-5-116-9-173 0-32-5-64-2-95-20 74-49 146-74 218-6 16-11 32-18 47-22-1-43 0-64 0-6 0-11-3-11-9-16-48-32-97-49-145-11-35-19-70-29-105 0 87-8 175-11 262-26 2-51 0-77 1-6 1-16-1-15-9 7-94 14-189 21-284 3-25 2-50 6-74zM16432 5801c38-3 77 0 115-1h157c7-1 10 7 9 12v339c-1 5 2 14-5 16-30 1-59 0-88 0-5 1-8-2-7-8-1-93 0-186 0-279h-87c-2 58 3 117-7 175-6 32-18 65-44 86-24 26-62 37-97 34-10-4-7-17-9-25-1-18-9-36-4-53 12-5 25-7 34-16 21-15 27-42 29-67 6-71 1-142 4-213zM17070 5808c-2-10 10-7 17-8 25 1 51-1 77 1 3 35 0 71 1 106 0 51 1 101-3 151 15-31 27-63 43-93 30-55 57-111 87-165 38 1 77-2 115 1 3 39 0 79 1 119v239c1 7-6 11-12 9-26 0-52 1-78 0-6-4-4-12-5-17 1-82-2-164 5-246-41 90-88 176-132 263-34 1-69 0-103 0-6 2-14-1-13-9v-351z"/>
            <path class="fil2" d="M18408 5686c4-7 9-13 14-20v835h-520c168-272 338-543 506-815z"/>
            <path class="fil3" d="M6951 2235c214-141 428-283 643-423 0 185-1 370-1 556-196-41-392-81-587-121-19-4-37-7-55-12zM6050 2121c131 130 262 262 393 393-183 119-365 241-548 360 51-251 103-502 155-753zM8149 2530c251 51 502 104 754 155-130 131-262 261-393 393-121-182-241-365-361-548zM5176 3430h556c-40 197-80 393-120 589-5 17-5 36-13 52-141-214-282-427-423-641zM8788 3587c41 59 79 120 119 180 102 154 203 308 305 462-172 0-344-1-515-1-14 0-28 1-41-1 44-213 87-427 132-640zM5485 4973c131-131 262-261 393-392 121 182 241 365 362 548-196-40-391-81-586-121-56-12-113-22-169-35zM7946 5145c182-121 365-240 547-361-50 250-103 499-153 748 0 7-7 2-10-1-128-129-256-257-384-386zM6795 5291c214 44 428 88 641 132-22 18-47 31-71 48-190 125-380 251-570 376v-556z"/>
            <path class="fil4" d="M7641 1847c278 421 556 843 834 1265-286 286-572 571-858 857 14-44 22-90 22-136 0-662 1-1324 2-1986zM6463 2556c6-2 13-11 18-4 284 285 568 569 851 854-43-13-87-21-132-21-663-2-1325-1-1988-3 133-89 268-176 401-265 284-187 567-373 850-561zM6726 3735c15-14 29-30 45-43-13 40-21 83-21 125-1 467-1 935-2 1402-1 197 0 394-1 591-47-67-90-136-136-204-233-353-465-706-698-1059 270-271 542-541 813-812zM7055 4252c43 14 88 22 133 22 662 1 1325 1 1988 2-103 70-209 138-312 207-318 209-635 419-953 628-285-287-571-572-856-859z"/>
            <path class="fil5" d="M6110 2112c494 101 989 203 1483 304-1 404-1 808-2 1212-20-39-45-75-76-106-452-453-904-907-1356-1360-16-17-34-32-49-50zM7501 4151c470-469 940-938 1411-1407-68 333-137 666-205 999-33 162-66 324-100 486-404-2-807-1-1211-2 38-21 74-45 105-76zM5781 3430c404 1 808 1 1213 2-37 19-71 42-101 70-30 29-59 59-89 88-21 22-43 42-63 65-30 26-57 56-85 83-16 17-33 31-47 49-25 21-47 46-71 69-20 21-42 40-61 63-51 46-98 97-148 145-227 226-454 453-681 679-57 57-114 115-172 172 102-495 203-990 305-1485zM6797 4030c20 39 46 77 77 108 469 470 938 939 1406 1409-495-101-990-203-1485-304 1-405 1-809 2-1213z"/>
            <ellipse class="fil6 str0" cx="7201" cy="3825" rx="396" ry="392"/>
        </g>
    </g>
</svg>
